<svg version="1.1" id="Capa_1" xmlns="http://www.w3.org/2000/svg" xmlns:xlink="http://www.w3.org/1999/xlink" x="0px" y="0px"
	 viewBox="0 0 491.793 491.793" style="enable-background:new 0 0 491.793 491.793;" xml:space="preserve">
<g>
	<path d="M362.547,100.996c27.845,0,50.498-22.653,50.498-50.498C413.045,22.653,390.392,0,362.547,0s-50.498,22.653-50.498,50.497
		C312.049,78.342,334.703,100.996,362.547,100.996z M362.547,8.5c23.158,0,41.998,18.84,41.998,41.998s-18.84,41.998-41.998,41.998
		s-41.998-18.84-41.998-41.998C320.549,27.34,339.389,8.5,362.547,8.5z"/>
	<path d="M449.596,450.083L410.35,297.9c1.272-4.443,1.924-9.043,1.924-13.697l-0.002-131.022c0-27.419-22.307-49.726-49.725-49.726
		c-23.363,0-43.272,16.023-48.432,38.5l-84.071,16.804c-6.611,1.321-12.313,5.138-16.054,10.748
		c-3.74,5.61-5.073,12.341-3.752,18.954c1.341,6.71,5.308,12.363,10.688,15.988c-8.098,2.351-15.037,7.425-19.756,14.528
		L41.836,458.818c-1.299,1.955-0.767,4.593,1.188,5.892c0.724,0.48,1.54,0.71,2.348,0.71c1.376,0,2.726-0.667,3.544-1.899
		L208.251,223.68c4.027-6.063,10.174-10.194,17.309-11.633c7.14-1.439,14.405-0.012,20.467,4.015
		c6.063,4.028,10.194,10.175,11.634,17.31c1.439,7.135,0.014,14.403-4.015,20.466c-1.299,1.955-0.767,4.593,1.188,5.892
		c1.956,1.299,4.593,0.767,5.892-1.189c5.284-7.954,7.154-17.49,5.267-26.85c-1.888-9.36-7.309-17.425-15.263-22.709
		c-1.192-0.792-2.424-1.497-3.682-2.135l65.773-13.146v90.502c0,3.38,0.354,6.691,1.009,9.904l-50.177,152.307
		c-2.791,8.466-2.117,17.512,1.896,25.47c4.014,7.958,10.887,13.877,19.353,16.666c3.455,1.138,6.964,1.679,10.418,1.679
		c14.016-0.001,27.099-8.909,31.72-22.929l32.573-98.869l25.357,98.316c3.802,14.746,17.08,25.045,32.291,25.045
		c2.805,0,5.616-0.358,8.354-1.065c8.632-2.226,15.881-7.68,20.41-15.356C450.554,467.696,451.823,458.714,449.596,450.083z
		 M221.063,174.223c2.48-3.721,6.262-6.253,10.647-7.128l118.719-23.729c1.091-0.218,2.202-0.329,3.303-0.329
		c7.941,0,14.838,5.665,16.397,13.469c1.809,9.054-4.086,17.891-13.14,19.701l-118.715,23.727c-1.091,0.218-2.203,0.329-3.304,0.329
		c-7.942,0-14.838-5.663-16.396-13.466C217.698,182.409,218.582,177.944,221.063,174.223z M358.656,184.54
		c13.649-2.727,22.536-16.051,19.81-29.701c-2.353-11.765-12.754-20.303-24.733-20.303c-1.658,0-3.33,0.166-4.969,0.494
		l-25.31,5.059c5.514-16.621,21.062-28.133,39.094-28.133c22.731,0,41.225,18.494,41.225,41.226l0.002,125.138
		c-5.949-9.681-16.594-15.895-28.406-15.895c-2.804,0-5.614,0.358-8.353,1.064c-17.82,4.595-28.58,22.83-23.985,40.648l4.79,18.574
		c-15.696-5.999-26.499-21.224-26.499-38.506v-92.201L358.656,184.54z M318.966,464.64c-4.293,13.024-18.381,20.129-31.405,15.838
		c-2.24-0.738-4.321-1.783-6.22-3.073l31.451-83.871c0.824-2.198-0.289-4.648-2.487-5.472c-2.196-0.823-4.647,0.29-5.472,2.487
		l-30.081,80.218c-0.584-0.868-1.136-1.762-1.614-2.711c-2.991-5.931-3.492-12.672-1.413-18.982l46.744-141.891
		c6.422,12.283,17.853,21.672,31.849,25.21l5.365,20.803L318.966,464.64z M438.705,471.053c-1.433,2.427-3.247,4.534-5.332,6.307
		L399.89,362.356c-0.656-2.253-3.012-3.545-5.27-2.893c-2.253,0.656-3.548,3.015-2.893,5.268l34.077,117.048
		c-0.755,0.274-1.525,0.515-2.314,0.718c-2.046,0.527-4.142,0.795-6.231,0.795c-11.333,0-21.227-7.676-24.061-18.668L351.26,302.013
		c-3.424-13.279,4.596-26.869,17.878-30.294c2.045-0.527,4.141-0.794,6.229-0.794c11.332,0,21.227,7.676,24.063,18.667
		l41.936,162.614C443.025,458.639,442.08,465.332,438.705,471.053z"/>
	<path d="M386.811,243.3c2.348,0,4.25-1.903,4.25-4.25v-47.997c0-2.347-1.902-4.25-4.25-4.25c-2.348,0-4.25,1.903-4.25,4.25v47.997
		C382.561,241.397,384.463,243.3,386.811,243.3z"/>
</g>
</svg>
