<svg version="1.1"  xmlns="http://www.w3.org/2000/svg" xmlns:xlink="http://www.w3.org/1999/xlink" x="0px" y="0px"
	 width="40" height="40" viewBox="0 0 79.536 79.536" style="enable-background:new 0 0 79.536 79.536;"
	 xml:space="preserve">
<g>
	<path style="fill:#010002;" d="M39.985,8.15c0,4.508-3.647,8.161-8.155,8.161s-8.161-3.653-8.161-8.161S27.322,0,31.83,0
		S39.985,3.648,39.985,8.15z M32.027,74.306c-10.812,0-19.604-8.792-19.604-19.594c0-7.291,4.042-13.587,9.947-16.958v-5.919
		c-8.906,3.77-15.174,12.604-15.174,22.867c0,13.69,11.136,24.834,24.832,24.834c9.087,0,16.971-4.981,21.295-12.293l-2.683-6.716
		C48.144,68.485,40.796,74.306,32.027,74.306z M68.437,62.386H62.55c0,0-3.573-10.18-4.567-12.883
		c-0.647-1.787-2.32-3.086-4.329-3.086h-14.31V36.413h13.574c1.797,0,3.252-1.45,3.252-3.252s-1.455-3.27-3.252-3.27H39.344
		c0,0-0.779-11.868-7.519-11.868c-4.614,0-6.193,3.744-6.193,8.357v20.948c0,4.619,3.749,8.368,8.357,8.368
		c0.137,0,0.254-0.073,0.386-0.073c0.127,0.006,0.249,0.073,0.389,0.073h17.45l5.805,14.509h10.413c2.154,0,3.909-1.755,3.909-3.915
		C72.347,64.126,70.591,62.386,68.437,62.386z"/>
</g>
</svg>
