<svg version="1.1" id="Layer_1" xmlns="http://www.w3.org/2000/svg" xmlns:xlink="http://www.w3.org/1999/xlink" x="0px" y="0px"
	 viewBox="0 0 512 512" style="enable-background:new 0 0 512 512;" xml:space="preserve">
<g>
	<g>
		<path d="M393.407,373.316c-0.135-0.054-79.272-28.094-79.272-28.094c-2.431-1.036-3.771-2.951-3.781-5.408v-0.14
			c0-0.014-0.002-0.027-0.002-0.041V320.27l31.859-16.777c0.187-0.098,0.37-0.202,0.55-0.311
			c14.834-8.997,24.586-25.117,26.085-43.121c0.023-0.288,0.036-37.002,0.036-37.002c17.663-4.421,30.786-20.421,30.786-39.435
			V10.452c0-4.439-2.804-8.394-6.992-9.863c-4.185-1.467-8.848-0.133-11.62,3.333c-0.125,0.157-13.03,15.711-29.535,15.711H170.691
			c-15.294,0-29.749,5.877-40.701,16.547c-10.641,10.365-16.853,24.152-17.572,38.934c-0.056,0.438-0.085,108.508-0.085,108.508
			c0,18.625,13.3,34.821,30.786,39.55v36.018c0,0.29,0.013,0.579,0.036,0.867c1.504,18.078,11.188,34.198,25.901,43.121
			c0.184,0.112,0.37,0.217,0.561,0.318l32.032,16.817v19.117c0,2.577-1.449,4.782-3.791,5.792c0,0-79.129,28.037-79.265,28.092
			c-18.176,7.309-30.87,26.681-30.87,47.109v81.122c0,5.773,4.68,10.452,10.452,10.452h315.647c5.772,0,10.452-4.679,10.452-10.452
			v-81.122C424.276,399.997,411.583,380.625,393.407,373.316z M108.629,491.096v-70.669c0-11.656,7.546-23.498,17.582-27.64
			l31.478-11.152l17.742,29.997l-16.007,41.188c-1.469,3.782-0.618,8.072,2.185,11.006l26.052,27.271H108.629z M201.65,401.872
			v73.604l-20.332-21.283l15.438-39.725c1.161-2.989,0.886-6.346-0.746-9.107l-18.241-30.841l23.881-8.461V401.872z
			 M378.765,183.625c0,7.294-3.985,13.662-9.882,17.082v-10.174c0-6.508-3.324-12.253-8.362-15.632v-28.387
			c6.784-3.698,12.931-8.42,18.244-13.949V183.625z M148.618,125.15c-3.388,1.823-5.502,5.358-5.502,9.205
			c0,29.342,0.003,52.673,0.005,66.267c-5.831-3.609-9.883-10.023-9.883-16.997V77.465c0.016-0.184,0.025-0.37,0.03-0.557
			c0.579-20.395,17.017-36.37,37.423-36.37H351.52c10.58,0,19.854-3.546,27.244-7.889v48.091c0,29.746-24.199,53.946-53.945,53.946
			H189.933c-11.217,0-21.514-3.046-30.603-9.051C156.122,123.515,152.006,123.328,148.618,125.15z M164.02,151.208
			c8.161,2.914,16.827,4.382,25.913,4.382h134.886c5.065,0,10.013-0.512,14.798-1.476v17.603h-62.333
			c-6.058,0-11.441,2.89-14.883,7.351c-2.036-0.58-4.181-0.898-6.401-0.898c-2.219,0-4.363,0.318-6.398,0.898
			c-3.444-4.46-8.827-7.35-14.883-7.35h-70.698C164.021,165.444,164.02,158.586,164.02,151.208z M347.978,192.623v0.769v35.054
			h-68.604v-35.823H347.978z M164.024,214.176c0-0.006,0.001-0.013,0.001-0.019l0.001-0.336c0,0-0.001-4.204-0.002-11.826v-9.373
			h68.604v35.823h-68.604V214.176z M179.643,285.153c-8.762-5.433-14.571-15.264-15.618-26.419v-9.385h70.695
			c10.374,0,18.813-8.44,18.813-18.813v-28.989c0-1.363,1.107-2.471,2.467-2.471c1.363,0,2.471,1.109,2.471,2.471v28.989
			c0,10.374,8.44,18.813,18.813,18.813h70.695v9.384c-1.044,11.086-6.924,20.921-15.806,26.422l-61.143,32.197
			c-0.187,0.098-0.37,0.202-0.55,0.311c-9.067,5.499-19.891,5.498-28.956,0c-0.184-0.112-0.37-0.217-0.561-0.318L179.643,285.153z
			 M227.496,481.959l7.115,9.138h-12.057v-83.488l12.237-7.79l-9.416,74.407C225.026,476.984,225.789,479.766,227.496,481.959z
			 M222.554,382.829v-17.302l13.783,8.529L222.554,382.829z M255.997,484.536l-9.339-11.994l9.34-73.797l9.339,73.797
			L255.997,484.536z M289.449,491.097h-12.068l7.116-9.138c1.708-2.193,2.471-4.976,2.122-7.733l-9.416-74.41l12.246,7.794V491.097z
			 M289.449,382.832l-13.789-8.775l13.789-8.531V382.832z M255.998,361.639l-33.444-20.695l0.001-9.654l8.423,4.422
			c7.733,4.619,16.379,6.927,25.025,6.927c8.647,0,17.295-2.31,25.03-6.931l8.416-4.432l0.001,9.666L255.998,361.639z
			 M310.353,401.872V366.06l23.88,8.461l-18.241,30.841c-1.633,2.76-1.907,6.117-0.746,9.107l15.439,39.725l-20.332,21.283V401.872z
			 M403.374,491.097h-0.001h-79.032l26.052-27.271c2.803-2.934,3.654-7.224,2.185-11.006l-16.007-41.188l17.742-29.997
			l31.478,11.152c10.038,4.14,17.582,15.983,17.582,27.64V491.097z"/>
	</g>
</g>
<g>
	<g>
		<path d="M325.909,103.486c-0.987-5.687-6.402-9.497-12.087-8.509c-2.248,0.391-4.557,0.588-6.863,0.588h-68.728
			c-5.772,0-10.452,4.679-10.452,10.452s4.68,10.452,10.452,10.452h68.728c3.502,0,7.014-0.302,10.44-0.897
			C323.088,114.585,326.897,109.173,325.909,103.486z"/>
	</g>
</g>
<g>
	<g>
		<path d="M348.598,73.418h-0.137c-5.772,0-10.452,4.679-10.452,10.452s4.68,10.452,10.452,10.452h0.137
			c5.773,0,10.452-4.679,10.452-10.452S354.37,73.418,348.598,73.418z"/>
	</g>
</g>
<g>
</g>
<g>
</g>
<g>
</g>
<g>
</g>
<g>
</g>
<g>
</g>
<g>
</g>
<g>
</g>
<g>
</g>
<g>
</g>
<g>
</g>
<g>
</g>
<g>
</g>
<g>
</g>
<g>
</g>
</svg>
