<svg version="1.1" id="Capa_1" xmlns="http://www.w3.org/2000/svg" xmlns:xlink="http://www.w3.org/1999/xlink" x="0px" y="0px"
	 viewBox="0 0 495.485 495.485" style="enable-background:new 0 0 495.485 495.485;" xml:space="preserve">
<g id="XMLID_158_">
	<path id="XMLID_162_" d="M387.998,105.937h-17.765c-22.969,0-41.605,18.629-41.605,41.605v3.052l52.523-37.304
		c0.048-0.034,0.109-0.04,0.159-0.074c-0.05,0.04-0.099,0.049-0.142,0.088l-69.363,63.773l-71.121,30.29
		c-10.505,4.464-15.397,16.605-10.93,27.108c3.359,7.862,10.997,12.578,19.036,12.578c2.7,0,5.444-0.534,8.073-1.664l74.398-31.676
		c2.18-0.921,4.164-2.205,5.896-3.804l71.973-66.187c0.061-0.055,0.08-0.138,0.142-0.193c-0.061,0.064-0.08,0.144-0.13,0.209
		L345.55,219.04c-1.841,2.179-4.081,3.803-6.539,4.859l-2.891,1.228l-7.492,3.187l0.031,242.372c0,13.698,11.112,24.8,24.8,24.8
		c5.653,0,10.819-1.971,14.98-5.167c-3.18-5.861-5.164-12.48-5.164-19.633V322.901h16.536v147.784c0,13.698,11.107,24.8,24.8,24.8
		c13.688,0,24.793-11.102,24.793-24.8c0,0,0.196-208.497,0.196-323.144C429.601,124.566,410.971,105.937,387.998,105.937z"/>
	<path id="XMLID_161_" d="M379.13,96.635c26.704,0,48.323-21.625,48.323-48.313C427.454,21.625,405.835,0,379.13,0
		c-26.684,0-48.321,21.625-48.321,48.322C330.809,75.01,352.447,96.635,379.13,96.635z"/>
	<path id="XMLID_160_" d="M116.355,96.635c26.685,0,48.323-21.625,48.323-48.313C164.678,21.625,143.04,0,116.355,0
		C89.653,0,68.034,21.625,68.034,48.322C68.034,75.01,89.653,96.635,116.355,96.635z"/>
	<path id="XMLID_159_" d="M177.092,173.825l-55.15-53.198l44.916,34.664v-7.749c0-22.976-18.636-41.605-41.605-41.605H107.49
		c-22.977,0-41.605,18.629-41.605,41.605c0,118.313,0.196,323.144,0.196,323.144c0,13.698,11.107,24.8,24.793,24.8
		c13.693,0,24.8-11.102,24.8-24.8V322.901h16.536v147.784c0,7.153-1.99,13.772-5.17,19.633c4.169,3.196,9.332,5.167,14.987,5.167
		c13.686,0,24.8-11.102,24.8-24.8l0.031-242.66l-16.504-11.737l-5.275-3.748c-0.307-0.224-0.602-0.5-0.841-0.783l-51.005-61.376
		l57.089,55.063c1.295,1.234,2.733,2.309,4.299,3.175l68.13,37.954c-1.714-2.194-3.243-4.559-4.391-7.238
		c-5.734-13.475-1.743-28.505,8.682-37.675L177.092,173.825z"/>
</g>
<g>
</g>
<g>
</g>
<g>
</g>
<g>
</g>
<g>
</g>
<g>
</g>
<g>
</g>
<g>
</g>
<g>
</g>
<g>
</g>
<g>
</g>
<g>
</g>
<g>
</g>
<g>
</g>
<g>
</g>
</svg>
