<svg version="1.1" id="Layer_1" xmlns="http://www.w3.org/2000/svg" xmlns:xlink="http://www.w3.org/1999/xlink" x="0px" y="0px"
	 viewBox="0 0 490.1 490.1" style="enable-background:new 0 0 490.1 490.1;" xml:space="preserve">
<g>
	<g>
		<path d="M320.427,151.189h-12.1c-1.7-8.5-5-16.4-9.7-23.3l8.5-8.5c2.1-2.1,2.1-5.5,0-7.5l-10.1-10.3c-2.1-2.1-5.5-2.1-7.5,0
			l-8.5,8.5c-6.9-4.6-14.8-8-23.3-9.7v-12c0-2.9-2.4-5.3-5.3-5.3h-14.5c-2.9,0-5.3,2.4-5.3,5.3v12.1c-8.5,1.7-16.4,5-23.3,9.7
			l-8.5-8.5c-2.1-2.1-5.5-2.1-7.5,0l-10.3,10.3c-2.1,2.1-2.1,5.5,0,7.5l8.5,8.5c-4.6,6.9-8,14.8-9.7,23.3h-12.1
			c-2.9,0-5.3,2.4-5.3,5.3v14.5c0,2.9,2.4,5.3,5.3,5.3h12.1c1.7,8.5,5,16.4,9.7,23.3l-8.5,8.5c-2.1,2.1-2.1,5.5,0,7.5l10,10.3
			c2.1,2.1,5.5,2.1,7.5,0l8.5-8.5c6.9,4.6,14.8,8,23.3,9.7v12h0.1c0,2.9,2.4,5.3,5.3,5.3h14.5c2.9,0,5.3-2.4,5.3-5.3v-12.1
			c8.5-1.7,16.4-5,23.3-9.7l8.5,8.5c2.1,2.1,5.5,2.1,7.5,0l10.3-10.3c2.1-2.1,2.1-5.5,0-7.5l-8.5-8.5c4.6-6.9,8-14.8,9.7-23.3h12.1
			c2.9,0,5.3-2.4,5.3-5.3v-14.5C325.727,153.589,323.327,151.189,320.427,151.189z M245.027,192.989c-16.1,0-29.2-13.1-29.2-29.2
			s13.1-29.2,29.2-29.2c16.1,0,29.2,13.1,29.2,29.2C274.227,179.889,261.127,192.989,245.027,192.989z"/>
	</g>
</g>
<g>
	<g>
		<path d="M82.027,189.189c-1.6-6.2-5.2-10.7-11.4-12.9c2,9.3,7.2,26.2,8.4,35.2l0.8,6.1c0.1,0.6,0.1,1.2,0.1,1.8
			c3.7,0.1,7.4,0.9,10.9,2.2C89.627,213.289,84.127,196.889,82.027,189.189z"/>
	</g>
</g>
<g>
	<g>
		<path d="M408.027,188.989c-2.1,7.8-7.6,24.3-8.8,32.5c3.5-1.3,7.2-2,10.9-2.2c0-0.6,0-1.2,0.1-1.8l0.8-6.1
			c1.2-9,6.4-25.9,8.4-35.2C413.227,178.289,409.627,182.789,408.027,188.989z"/>
	</g>
</g>
<g>
	<g>
		<path d="M277.627,43.289l-30.3-20.8c-1-0.7-2.3,0-2.3,1.2v11.2c-71.1,0-128.9,57.8-128.9,128.9c0,41.2,19.9,80.2,53.2,104.4
			l11.3-15.6c-28.4-20.6-45.3-53.8-45.3-88.8c0-60.5,49.2-109.7,109.7-109.7v11.2c0,1.2,1.3,2,2.3,1.3l30.3-20.8
			C278.527,45.189,278.527,43.889,277.627,43.289z"/>
	</g>
</g>
<g>
	<g>
		<path d="M320.727,59.389l-11.4,15.6c28.4,20.6,45.3,53.8,45.3,88.8c0,60.5-49.2,109.7-109.7,109.7v-11.2c0-1.2-1.3-1.9-2.3-1.2
			l-30.3,20.8c-0.9,0.6-0.9,1.9,0,2.5l30.3,20.8c1,0.7,2.3,0,2.3-1.2v-11.2c71.2-0.1,129-57.9,129-129
			C373.927,122.589,354.027,83.589,320.727,59.389z"/>
	</g>
</g>
<g>
	<g>
		<path d="M483.627,148.789c-5.7-4.6-14.7-6.3-21.4,1.3c-4.8,5.4-7.1,22.3-7.8,26.8c-2.7,16.1-5.4,39.3-5.8,55.5
			c0,1.1-0.1,2.6-0.2,3.7c-0.4,7.1-2.1,13.7-5.1,20.2c-16.4,35.7-49.4,80.9-49.4,80.9l-1.8,2.7c-1.4,2-4.1,2.7-6.3,1.5
			c-2.4-1.3-3.2-4.4-1.8-6.7l43.7-71.3c4.7-7.9,2-19.1-6.6-24.4c-8.6-5.3-19.8-2.6-24.5,5.4l-45.4,58.4c-3,3.8-8.6,9.3-12.5,12.1
			c-40.9,29.4-46.3,59.2-49.9,74.6c0,0-0.3,3.4-0.4,8.4c0,4.1,0.1,9.2,0.8,14.4l2.7,49.1c0,3.6,3,6.5,6.6,6.5l76.8-0.4
			c3.6,0,6.5-3,6.5-6.6l1.4-40.5l73-87.9c10.8-11.4,18.1-24.3,20.4-39.7l0.7-4.5l12.7-123.3
			C490.527,158.789,488.427,152.589,483.627,148.789z"/>
	</g>
</g>
<g>
	<g>
		<path d="M57.827,171.489c-1.6-6.2-5.3-10.7-11.6-12.8c1.3,4.4,2.2,8.7,2.9,12.9c2.4,13.9,5.8,39.1,6,52.4c0,1.4,0.1,2.7,0.1,4.1
			c1.5-1.3,3.1-2.6,4.9-3.7c2.2-1.4,4.6-2.4,6.9-3.2c0.1-0.2,0.2-0.3,0.3-0.4C65.627,208.089,61.127,183.989,57.827,171.489z"/>
	</g>
</g>
<g>
	<g>
		<path d="M201.627,397.789c0-5-0.4-8.4-0.4-8.4c-3.6-15.3-9.1-45.1-49.9-74.6c-3.9-2.8-9.5-8.3-12.5-12.1l-45.4-58.4
			c-4.7-7.9-15.9-10.6-24.5-5.4s-11.3,16.5-6.6,24.4l43.7,71.3c1.4,2.3,0.6,5.4-1.8,6.7c-2.2,1.2-4.9,0.5-6.3-1.5l-1.8-2.7
			c0,0-33-45.1-49.5-80.9c-3-6.5-4.7-13.1-5.1-20.2c-0.1-1.1-0.1-2.6-0.2-3.7c-0.5-16.3-3.1-39.4-5.8-55.5
			c-0.8-4.5-3.1-21.4-7.8-26.8c-6.7-7.6-15.7-5.9-21.4-1.3c-4.7,3.8-6.9,10.1-6.2,16.1l12.7,123.3l0.7,4.5
			c2.3,15.5,9.6,28.3,20.4,39.7l73,87.9l1.4,40.5c0,3.6,2.9,6.5,6.5,6.6l76.8,0.4c3.6,0,6.5-2.9,6.6-6.5l2.7-49.1
			C201.527,407.089,201.727,401.889,201.627,397.789z"/>
	</g>
</g>
<g>
	<g>
		<path d="M432.227,171.589c-3.3,12.4-7.8,36.5-9.5,49.2c0.1,0.2,0.2,0.3,0.3,0.4c2.4,0.8,4.7,1.9,6.9,3.2c1.8,1.1,3.4,2.3,4.9,3.7
			c0-1.4,0.1-2.7,0.1-4.1c0.3-13.4,3.7-38.5,6-52.4c0.7-4.2,1.5-8.6,2.9-12.9C437.527,160.789,433.827,165.289,432.227,171.589z"/>
	</g>
</g>
<g>
</g>
<g>
</g>
<g>
</g>
<g>
</g>
<g>
</g>
<g>
</g>
<g>
</g>
<g>
</g>
<g>
</g>
<g>
</g>
<g>
</g>
<g>
</g>
<g>
</g>
<g>
</g>
<g>
</g>
</svg>
