<svg version="1.1" id="Layer_1" xmlns="http://www.w3.org/2000/svg" xmlns:xlink="http://www.w3.org/1999/xlink" x="0px" y="0px"
	 viewBox="0 0 489.2 489.2" style="enable-background:new 0 0 489.2 489.2;" xml:space="preserve">
<g>
	<g>
		<path d="M338.3,63.65h-216c-11-20.4-32.5-34.4-57.3-34.4c-35.9,0-65,29.1-65,65c0,36,29.1,65.1,65,65.1
			c29.4,0,54.2-19.5,62.2-46.2h207.7c-1.3-6.1-2-12.3-2-18.8C332.9,83.55,334.9,73.25,338.3,63.65z M65,118.65
			c-13.3,0-24.2-10.8-24.2-24.2c0.1-13.4,10.9-24.2,24.2-24.2c13.3,0,24.2,10.8,24.2,24.2C89.2,107.75,78.4,118.65,65,118.65z"/>
	</g>
</g>
<g>
	<g>
		<path d="M424.2,29.35c-35.9,0-65,29.1-65,65c0,17.7,7.1,33.7,18.5,45.4l-103.3,168.8c16.1,5.4,30.2,15.2,40.9,27.9l108.4-177.1
			c0.2,0,0.3,0,0.5,0c35.9,0,65-29.1,65-65C489.2,58.45,460.1,29.35,424.2,29.35z M424.2,118.55c-13.3,0-24.2-10.8-24.2-24.2
			c0-13.3,10.8-24.2,24.2-24.2c13.3,0,24.2,10.8,24.2,24.2C448.3,107.65,437.5,118.55,424.2,118.55z"/>
	</g>
</g>
<g>
	<g>
		<path d="M245.3,329.95c-5.1,0-10.1,0.7-14.9,1.8l-104-170c-12.2,11.1-27.5,19-44.4,22.2l108.1,176.7c-6.2,10-9.8,21.7-9.8,34.3
			c0,35.9,29.1,65,65,65s65-29.1,65-65C310.3,359.05,281.2,329.95,245.3,329.95z M245.3,419.05c-13.3,0-24.2-10.8-24.2-24.2
			c0-13.3,10.8-24.2,24.2-24.2c13.3,0,24.2,10.8,24.2,24.2C269.4,408.25,258.6,419.05,245.3,419.05z"/>
	</g>
</g>
</svg>
